<?xml version="1.0" encoding="UTF-8"?>
<svg width="57.957mm" height="35.452mm" version="1.1" viewBox="0 0 57.957 35.452" xmlns="http://www.w3.org/2000/svg">
<g transform="translate(-72.784 -115.01)">
<path d="m82.951 146.99c-2.6052-4.3713-5.2382-7.8906-8.0291-10.732-2.337-2.3794-2.5965-3.0555-1.5525-4.046 0.51626-0.48981 0.82368-0.54866 2.3151-0.44316 1.7408 0.12313 3.3405 0.68866 7.0626 2.4967l1.9032 0.92451 0.87491-1.0138c7.9004-9.1548 16.29-17.115 19.66-18.653 2.0784-0.94849 3.843-0.53174 3.8269 0.90378-8e-3 0.7368-0.56577 1.4177-4.1672 5.0901-2.2867 2.3317-5.1516 5.5464-6.3665 7.1438l-2.2089 2.9042 1.2828 0.16245c1.4234 0.18026 4.0292 1.1541 6.8266 2.5513l1.8396 0.91881 0.77744-0.89025c8.8722-10.16 15.748-16.719 19.545-18.646 1.4375-0.72938 3.1493-0.82836 3.7602-0.21743 0.93913 0.93913 0.55066 1.6157-2.9277 5.0993-8.4331 8.4457-13.169 15.47-18.207 27.005-1.6468 3.7707-2.0803 3.826-3.988 0.50908-2.8559-4.9655-6.0304-9.2448-9.0591-12.212l-1.5723-1.5404-1.1974 1.9372c-1.8802 3.0421-3.0539 5.3152-5.0983 9.8748-2.5276 5.6372-2.4678 5.6274-5.3017 0.8725z" fill="#2272cb" stroke-width=".26458"/>
</g>
</svg>
