<?xml version="1.0" encoding="UTF-8"?>
<svg version="1.1" viewBox="0 0 328.09 281.19" xmlns="http://www.w3.org/2000/svg">
<g transform="translate(-20.301 -1.8088)">
<path d="m64.316 281.2c3.2993-3.6456 8.8998-17.488 9.3569-23.127l0.45197-5.5762-5.8126-3.2737c-24.301-13.686-42.338-35.717-46.929-57.32-1.3271-6.2437-1.3929-8.9383-0.4197-17.171 1.8702-15.819 7.2228-29.011 17.218-42.436l4.3181-5.7995 0.64918 7.5c4.7214 54.547 60.895 101.05 132.82 109.95 4.6606 0.57695 9.1606 1.0706 10 1.0971 2.4657 0.0777-9.7763 6.025-18.62 9.0456-13.144 4.4896-22.71 6.1076-37.991 6.4257l-14.137 0.29432-7.0094 5.0982c-8.7596 6.3712-22.018 13.424-29.148 15.503-2.9873 0.87155-7.8946 1.5846-10.905 1.5846-5.204 0-5.3934-0.0885-3.8472-1.797zm206-3.2992c-3.95-0.46019-10.025-1.7767-13.5-2.9256-15.798-5.2231-40.589-19.754-53.318-31.25l-6-5.4193-11.5-0.58734c-37.488-1.9146-74.311-17.05-99.505-40.898-24.086-22.8-35.417-46.912-35.473-75.485-0.057051-29.424 11.02-54.462 33.932-76.694 19.261-18.69 42.892-31.315 71.046-37.956 15.912-3.7538 25.977-4.8956 43-4.8781 17.954 0.018476 29.302 1.265 44 4.8331 45.015 10.928 79.911 37.185 96.414 72.546 7.3354 15.717 9.0204 23.658 8.9782 42.312-0.0328 14.474-0.29542 16.858-2.7541 25-5.8226 19.281-14.122 32.964-29.138 48.039-11.501 11.546-25.76 21.548-41.354 29.008l-10.353 4.9525 0.45665 7.3017c0.3843 6.1446 1.1827 8.7641 5.038 16.53 2.5198 5.0758 6.8608 12.355 9.6469 16.177 2.786 3.8215 5.0655 7.2795 5.0655 7.6844 0 1.1145-3.6295 2.8237-5.6843 2.6769-0.99866-0.0713-5.0476-0.50625-8.9976-0.96643zm-137.37-113.65c2.9236-13.23 11.297-27.968 20.113-35.402 5.7381-4.8384 6.8119-8.3478 5.0134-16.384-2.385-10.658-13.718-19.444-25.079-19.444-13.806 0-24.342 10.364-24.389 23.989-0.0269 7.8115 2.7403 14.336 8.0623 19.009 1.9454 1.7081 3.3773 3.2475 3.1821 3.421-0.19525 0.17349-2.3184 1.3059-4.7182 2.5164-8.3628 4.2186-16.921 15.538-18.746 24.795l-0.64086 3.25h35.932zm129.05 5.4968c0-0.13925-0.85961-3.2591-1.9102-6.933-4.9086-17.164-17.283-32.572-32.509-40.477l-7.919-4.1112 3.0389-1.5715c4.8461-2.506 11.988-11.207 14.324-17.452 7.7613-20.744-1.0922-43.212-20.792-52.765-4.7296-2.2935-7.4369-2.8579-15.466-3.2247-8.2726-0.37789-10.688-0.10777-16.091 1.7999-15.456 5.4564-25.23 17.925-27.143 34.628-1.3638 11.905 3.7717 24.721 13.524 33.75l5.6521 5.2328-7.6042 3.9c-14.995 7.6907-27.213 23.069-31.972 40.242l-2.0046 7.2337h63.436c34.89 0 63.436-0.11393 63.436-0.25318zm38.869-3.8357c-2.1595-9.6112-9.3619-18.834-18.394-23.553-3.0084-1.5719-5.471-3.1109-5.4722-3.42-1e-3 -0.30907 1.2402-1.4806 2.7589-2.6035 1.5187-1.1228 4.0999-4.47 5.7359-7.4381 2.4528-4.45 2.9705-6.5366 2.9517-11.897-0.0278-7.9092-2.4862-13.164-8.6113-18.407-14.308-12.247-37.831-3.127-39.607 15.356-0.802 8.3466 0.34064 11.474 6.8699 18.805 7.221 8.1072 14.093 21.284 15.936 30.555l1.33 6.691h37.42z" fill="#4facea"/>
</g>
</svg>
